Coordinates
version=1
nRows=24
nColumns=24
inDegrees=yes

Units are S.I. units (second, meters, Newtons, ...)
Angles are in degrees.

endheader
time	pelvis_tilt	pelvis_list	pelvis_rotation	pelvis_tx	pelvis_ty	pelvis_tz	hip_flexion_r	hip_adduction_r	hip_rotation_r	knee_angle_r	ankle_angle_r	subtalar_angle_r	mtp_angle_r	hip_flexion_l	hip_adduction_l	hip_rotation_l	knee_angle_l	ankle_angle_l	subtalar_angle_l	mtp_angle_l	lumbar_extension	lumbar_bending	lumbar_rotation
      1.19616667	     -2.12565472	     -3.27321337	    -13.49865688	     -0.03841438	      0.87377590	      0.35455880	    -17.95800724	      4.86593953	      5.82628130	     -9.95943741	     20.02038734	     12.71772381	     10.96225066	     29.88190033	     -8.86783749	    -15.08177501	     -3.02300505	      6.23586344	     -2.06444606	     -0.36399453	     -5.29868422	      5.38875946	     13.08109848
      1.20033333	     -2.18251852	     -3.18142899	    -13.58838502	     -0.03270394	      0.87291265	      0.35449121	    -18.02306132	      4.67252159	      5.81729629	    -10.43555307	     19.92376210	     12.72233111	     11.00716959	     30.03408190	     -8.82428822	    -15.11470196	     -3.62808913	      6.24011471	     -2.17888807	     -0.35464214	     -5.17885830	      5.19358477	     13.15089212
      1.20450000	     -2.29019861	     -3.08463183	    -13.66995266	     -0.02699426	      0.87200126	      0.35439449	    -18.00295365	      4.48937207	      5.81549081	    -10.97318484	     19.85256631	     12.80248821	     11.14001338	     30.26110516	     -8.78803152	    -15.14241150	     -4.31486836	      6.20304261	     -2.22480073	     -0.32213812	     -5.03846096	      5.00254067	     13.25645743
      1.20866667	     -2.31629756	     -2.96878223	    -13.72547868	     -0.02115193	      0.87125726	      0.35425640	    -18.08979625	      4.26976064	      5.79797067	    -11.46460638	     19.66170419	     12.75920482	     11.20867751	     30.36160918	     -8.69077686	    -15.15008039	     -4.96194008	      6.14683912	     -2.37142370	     -0.30426126	     -4.94239764	      4.75922316	     13.28029424
      1.21283333	     -2.42262319	     -2.85158436	    -13.77713999	     -0.01533549	      0.87042612	      0.35409454	    -18.04593709	      4.07301823	      5.79076405	    -12.04554016	     19.50200134	     12.79468616	     11.39631794	     30.56536383	     -8.60764789	    -15.12283352	     -5.66801464	      6.02065184	     -2.51911340	     -0.25413867	     -4.77215177	      4.52204836	     13.32533712
      1.21700000	     -2.44092444	     -2.72439940	    -13.79941713	     -0.00939172	      0.86977432	      0.35386770	    -18.11333260	      3.84512742	      5.73968102	    -12.58761911	     19.24080062	     12.74215312	     11.51514375	     30.65212036	     -8.47414036	    -15.12532748	     -6.35869852	      5.85697712	     -2.71087625	     -0.22283572	     -4.67610751	      4.27752713	     13.33462956
      1.22116667	     -2.54659622	     -2.58069781	    -13.82060189	     -0.00345661	      0.86903297	      0.35362795	    -18.04518054	      3.62636680	      5.71612264	    -13.20745973	     18.99113260	     12.75315866	     11.79593053	     30.83045810	     -8.33396164	    -15.04714063	     -7.05334784	      5.59479263	     -2.97660081	     -0.14781625	     -4.49604567	      4.00593799	     13.33399574
      1.22533333	     -2.54245287	     -2.42075996	    -13.82693212	      0.00257432	      0.86850884	      0.35332387	    -18.09304670	      3.35655105	      5.63564675	    -13.80768528	     18.62079248	     12.69721670	     16.01537463	     30.85464714	     -8.13004079	    -14.97895578	     -7.68767102	      5.23849017	     -3.43086226	      1.05052667	     -4.43366042	      3.71711696	     13.30092033
      1.22950000	     -2.57606564	     -2.28453704	    -13.77384420	      0.00866094	      0.86795171	      0.35295898	    -18.11046862	      3.14382309	      5.53031526	    -14.40905819	     18.19011730	     12.61698488	     16.04003961	     30.96972251	     -7.94681251	    -14.94059416	     -8.43634457	      4.94634973	     -3.60896787	      1.05926541	     -4.30417675	      3.45985924	     13.28630232
      1.23366667	     -2.69793767	     -2.12137787	    -13.73870023	      0.01471333	      0.86731683	      0.35257103	    -17.97043351	      2.92279871	      5.47514387	    -15.12550872	     17.84066713	     12.60045407	     16.21127117	     31.15613806	     -7.73977555	    -14.78133128	     -9.12819226	      4.50938050	     -4.05942921	      1.10982811	     -4.09728176	      3.18153358	     13.20252861
      1.23783333	     -2.74329603	     -1.94054669	    -13.68279906	      0.02088389	      0.86685205	      0.35215183	    -17.91781766	      2.66425969	      5.36766409	    -15.81648677	     17.36336457	     12.54617809	     16.39328495	     31.24209029	     -7.48745378	    -14.67973103	     -9.79449610	      4.07181741	     -4.42316847	      1.15741820	     -3.93619040	      2.84869133	     13.13129414
      1.24200000	     -2.74049805	     -1.72671268	    -13.63158091	      0.02708448	      0.86650290	      0.35167296	    -17.86844535	      2.34811408	      5.20992692	    -16.57961913	     16.88193212	     12.51272796	     19.45313871	     31.24697437	     -7.17134990	    -14.54910325	    -10.39369852	      3.54592682	     -5.07745605	      1.97554952	     -3.84946683	      2.49037017	     13.03913971
      1.24616667	     -2.83130448	     -1.56944830	    -13.50394604	      0.03331296	      0.86604578	      0.35113825	    -17.74806911	      2.14895023	      5.07062712	    -17.31180373	     16.26490705	     12.43152085	     19.52049432	     31.42599454	     -6.92375342	    -14.41211642	    -11.14871753	      3.10870347	     -5.30750287	      1.99168630	     -3.64541462	      2.21566080	     12.95910401
      1.25033333	     -2.91939087	     -1.38734449	    -13.39148024	      0.03951645	      0.86563528	      0.35055938	    -17.56261016	      1.91488713	      4.91453715	    -18.16769393	     15.75390988	     12.36978254	     19.75625801	     31.57931105	     -6.63314915	    -14.20462847	    -11.84803389	      2.57503005	     -5.89440478	      2.03930573	     -3.45627736	      1.93154201	     12.78795678
      1.25450000	     -2.96147301	     -1.17353412	    -13.26413686	      0.04585075	      0.86535811	      0.34998570	    -17.43637643	      1.63800829	      4.74568458	    -18.97780915	     15.05220355	     12.29827594	     19.91788058	     31.67144204	     -6.30602629	    -14.09975592	    -12.53901207	      2.13996789	     -6.19097258	      2.06830605	     -3.29425878	      1.55426415	     12.69858763
      1.25866667	     -3.00568463	     -0.95442334	    -13.11196928	      0.05215444	      0.86509293	      0.34929049	    -17.24441639	      1.34836858	      4.46869842	    -19.90006431	     14.37210522	     12.27270999	     24.26171970	     31.76545486	     -5.93548005	    -13.85689357	    -13.20604390	      1.61425909	     -6.83576610	      2.87173027	     -3.15069499	      1.21575129	     12.56319510
      1.26283333	     -3.06288818	     -0.74830572	    -12.95718596	      0.05852096	      0.86488459	      0.34865754	    -17.05690987	      1.09249048	      4.29524143	    -20.78831186	     13.58717613	     12.17234349	     24.29953970	     31.89567714	     -5.61110611	    -13.74571251	    -13.95724938	      1.22440012	     -7.09694092	      2.87675722	     -2.97928456	      0.86286282	     12.42922674
      1.26700000	     -3.14783168	     -0.54095402	    -12.77662445	      0.06482661	      0.86464155	      0.34791411	    -16.76844332	      0.83870172	      4.03707102	    -21.81472897	     12.89625382	     12.13127188	     24.47917462	     32.05907054	     -5.25390324	    -13.49146114	    -14.69007718	      0.77234807	     -7.65286935	      2.89394986	     -2.78597916	      0.55554440	     12.20168749
      1.27116667	     -3.20032132	     -0.31075959	    -12.58505351	      0.07121766	      0.86449780	      0.34716107	    -16.50638021	      0.55150608	      3.75879451	    -22.83854067	     12.09856504	     12.10581598	     24.77784844	     32.18061496	     -4.86637983	    -13.27243222	    -15.42475766	      0.40853229	     -8.08994224	      2.91842599	     -2.62285471	      0.19172554	     12.02493613
      1.27533333	     -3.20937798	     -0.06212615	    -12.37939535	      0.07766387	      0.86445857	      0.34637528	    -16.27196545	      0.22873180	      3.43222122	    -23.87226262	     11.18325309	     12.05010375	     28.42587630	     32.25070785	     -4.44691156	    -13.07734361	    -16.16140040	      0.14231685	     -8.45893347	      3.17225999	     -2.50499211	     -0.21943340	     11.90670915
      1.27950000	     -3.24326486	      0.15578831	    -12.16207625	      0.08410085	      0.86442709	      0.34560522	    -16.00007478	     -0.04434909	      3.14879007	    -24.93275023	     10.23009905	     11.99790408	     28.46057201	     32.37267295	     -4.07599484	    -12.90587781	    -16.97520278	     -0.03694004	     -8.66211185	      3.17222470	     -2.36344978	     -0.59254846	     11.76761664
      1.28366667	     -3.29402758	      0.38633966	    -11.93337819	      0.09049736	      0.86438088	      0.34474061	    -15.64139179	     -0.34028963	      2.79355971	    -26.11789657	      9.35502025	     11.98181932	     28.60361442	     32.50970768	     -3.67084325	    -12.65528170	    -17.77037975	     -0.24465515	     -9.04973830	      3.16582134	     -2.21398887	     -0.92616497	     11.54236271
      1.28783333	     -3.30691502	      0.63418685	    -11.69364572	      0.09695315	      0.86443334	      0.34387270	    -15.31272115	     -0.66668892	      2.41620007	    -27.30394116	      8.38820239	     11.97981622	     28.79981311	     32.59294095	     -3.23793099	    -12.41763626	    -18.55290821	     -0.36121815	     -9.34405088	      3.15384323	     -2.09837055	     -1.31661694	     11.36817247
      1.29200000	     -3.23742646	      0.90954439	    -11.41146505	      0.10347969	      0.86464091	      0.34290267	    -15.07104840	     -1.04925568	      1.93880646	    -28.47212674	      7.35362726	     12.02381602	     30.23188458	     32.56305063	     -2.71699829	    -12.09193004	    -19.27666961	     -0.46589471	     -9.79882274	      3.01862830	     -2.08356740	     -1.76747943	     11.17116872
